<?xml version="1.0" encoding="UTF-8" standalone="no"?>
<!DOCTYPE svg PUBLIC "-//W3C//DTD SVG 1.1//EN" "http://www.w3.org/Graphics/SVG/1.1/DTD/svg11.dtd">
<!-- Created with Vectornator (http://vectornator.io/) -->
<svg height="100%" stroke-miterlimit="10" style="fill-rule:nonzero;clip-rule:evenodd;stroke-linecap:round;stroke-linejoin:round;" version="1.1" viewBox="0 0 841.995 595.35" width="100%" xmlSpace="preserve" xmlns="http://www.w3.org/2000/svg" xmlnsVectornator="http://vectornator.io" xmlnsXlink="http://www.w3.org/1999/xlink">
<defs/>
<g id="Layer-1" vectornatorLayerName="Layer 1">
<path d="M19.995 43.813L33.7356 43.813L33.7356 79.706L19.995 79.706L19.995 43.813Z" fill="#c71155" fill-rule="nonzero" opacity="0" stroke="none"/>
<path d="M89.791 31.2706L102.572 31.2706L102.572 87.6898L89.791 87.6898L89.791 31.2706Z" fill="#c71155" fill-rule="nonzero" opacity="0" stroke="none"/>
<path d="M37.4382 35.9832L27.2297 38.9828L50.8471 88.2745L61.0556 85.2749L37.4382 35.9832Z" fill="#c71155" fill-rule="nonzero" opacity="0" stroke="none"/>
<path d="M70.1286 32.8557L59.9201 35.8553L72.3869 61.8745L82.5954 58.8749L70.1286 32.8557Z" fill="#c71155" fill-rule="nonzero" opacity="0" stroke="none"/>
<path d="M102.292 30.0349L92.4881 26.2983L72.8396 57.9133L82.6435 61.65L102.292 30.0349Z" fill="#c71155" fill-rule="nonzero" opacity="0" stroke="none"/>
<path d="M53.0526 36.7539L65.4283 36.7539L65.4283 81.8376L53.0526 81.8376L53.0526 36.7539Z" fill="#c71155" fill-rule="nonzero" opacity="0" stroke="none"/>
<g opacity="0">
<path d="M156.031 71.3438C155.543 71.1271 154.97 72.1517 154.719 72.4688C153.783 73.6489 152.997 74.9084 152.375 76.2812C150.58 80.243 149.852 84.5251 149.156 88.7812C149.05 89.4302 149.007 90.036 148.938 90.6875C148.892 91.1107 148.713 91.4402 148.406 91.7188C148.39 91.6941 148.36 91.6808 148.344 91.6562C148.402 91.7448 148.243 91.4924 148.156 91.375C148.148 91.3629 148.133 91.3558 148.125 91.3438C147.956 91.09 147.804 90.8096 147.625 90.5625C147.587 90.5095 147.644 90.6532 147.688 90.75C147.351 90.2722 147.027 89.7767 146.656 89.3125C146.777 89.492 146.843 89.6946 146.969 89.875C147.211 90.2235 147.482 90.5446 147.75 90.875C147.806 91.0455 147.842 91.2386 147.906 91.4062C147.96 91.5472 148.082 91.6502 148.156 91.7812C148.137 91.7742 148.106 91.7921 148.094 91.7812C148.354 92.1713 148.594 92.5625 148.875 92.9375C149.027 93.1623 149.229 93.0288 149.375 92.875C149.926 92.2942 149.739 91.3418 149.844 90.625C150.132 88.6523 150.392 86.7034 150.812 84.75C151.086 83.4786 151.402 82.222 151.75 80.9688C151.901 80.4253 152.156 79.6254 152.344 79.0938C152.552 78.504 152.813 77.8233 153.062 77.25C153.711 75.7633 154.527 74.3771 155.562 73.125C155.794 72.8454 156.139 72.0915 156.594 72.25C156.594 72.2524 156.624 72.2476 156.625 72.25C156.653 72.3669 156.668 72.4816 156.688 72.5938C156.751 72.9487 156.835 73.3031 156.906 73.6562C157.116 74.6912 157.177 75.805 157.312 76.8438C157.636 79.3198 157.884 81.7803 157.844 84.2812C157.776 88.4514 157.453 92.645 157.812 96.8125C157.913 97.9739 158.064 99.1357 158.281 100.281C158.528 101.582 158.864 102.885 158.875 104.219C158.882 105.133 158.663 105.723 158.438 106.562C158.262 107.216 158.18 107.924 158.094 108.594C157.714 111.536 157.684 114.506 157.625 117.469C157.623 117.47 157.72 117.629 157.844 117.812C157.968 117.996 158.061 118.126 158.062 118.125C158.124 115.167 158.18 112.22 158.562 109.281C158.65 108.613 158.73 107.903 158.906 107.25C159.132 106.413 159.35 105.819 159.344 104.906C159.335 103.577 158.993 102.266 158.75 100.969C158.536 99.8281 158.378 98.6875 158.281 97.5312C157.891 92.8773 158.486 88.2141 158.406 83.5625C158.389 82.5686 158.311 81.6142 158.219 80.625C158.122 79.5951 158.003 78.714 157.875 77.6875C157.714 76.3953 157.572 75.1529 157.344 73.875C157.27 73.4629 157.271 72.9868 157.031 72.625C156.884 72.4026 156.714 72.1884 156.562 71.9688C156.528 71.9192 156.503 71.8618 156.469 71.8125C156.418 71.7396 156.364 71.6659 156.312 71.5938C156.262 71.5239 156.108 71.3779 156.031 71.3438ZM137.219 71.6875C136.932 72.0159 137.464 72.9012 137.469 73.3125C137.473 73.6707 137.476 74.0168 137.469 74.375C137.428 76.5054 137.243 78.617 137.281 80.75C137.302 81.8945 137.382 83.0191 137.5 84.1562C137.584 84.9675 137.718 85.8712 137.594 86.6875C137.508 87.2551 137.09 87.4633 136.719 87.8438C136.51 88.0579 136.263 88.4153 136.125 88.625C135.567 89.4741 135.207 90.4401 134.906 91.4062C133.573 95.6883 132.972 100.054 132.812 104.531C132.709 107.442 132.564 110.401 132.625 113.312C132.649 114.48 132.731 116.265 131.594 117C130.539 117.681 129.445 116.241 129.062 115.688C128.845 115.372 128.628 115.063 128.406 114.75C128.177 114.426 127.768 113.912 127.562 113.656C127.154 113.149 126.775 112.707 126.344 112.219C125.912 111.73 125.458 111.276 125 110.812C124.95 110.709 124.895 110.604 124.844 110.5C124.662 110.129 124.466 109.775 124.281 109.406C123.682 108.209 123.056 107 122.438 105.812C121.678 104.354 120.902 102.903 120.219 101.406C119.772 100.426 119.376 99.4234 118.875 98.4688C118.351 97.4713 117.69 96.5655 117.094 95.625C117.122 95.6426 117.163 95.6387 117.188 95.6562C117.332 95.7606 117.438 95.9078 117.438 95.9062C116.821 94.9836 116.188 94.0728 115.562 93.1562C115.541 93.1252 115.521 93.0935 115.5 93.0625C115.48 93.0214 115.412 92.9309 115.438 92.9688C115.39 92.8987 115.361 92.8201 115.312 92.75C115.175 92.5494 114.902 92.3556 114.656 92.3125C114.008 92.1988 113.599 94.2162 113.5 94.625C113.441 94.8698 113.366 95.1288 113.312 95.375C112.824 97.6387 112.29 99.9323 111.938 102.219C111.714 103.667 111.644 105.1 111.594 106.562C111.538 108.188 111.453 109.815 111.344 111.438C111.169 114.039 110.993 116.566 110.094 119.031C110.085 119.037 110.58 119.758 111.188 120.656C111.795 121.554 112.304 122.287 112.312 122.281C113.21 119.812 113.359 117.293 113.531 114.688C113.757 111.281 113.656 107.801 114.281 104.438C114.529 103.105 114.853 101.765 115.125 100.438C115.35 99.3406 115.489 98.231 115.812 97.1562C115.903 96.8563 116.274 95.5778 116.594 95.4688C116.678 95.44 116.753 95.5361 116.844 95.5625C116.878 95.6292 116.935 95.6822 116.969 95.75C117.916 97.6741 118.763 99.6542 119.75 101.562C120.58 103.167 121.439 104.761 122.25 106.375C122.626 107.124 122.929 107.897 123.344 108.625C123.667 109.192 124.077 109.705 124.438 110.25C124.421 110.234 124.321 110.119 124.344 110.156C124.786 110.888 125.294 111.579 125.781 112.281C125.982 112.561 126.174 112.846 126.375 113.125C127.092 114.119 128.146 114.9 128.938 115.844C129.272 116.243 129.772 116.84 130.094 117.25C130.107 117.269 130.112 117.293 130.125 117.312C130.195 117.41 130.287 117.565 130.25 117.5C130.313 117.592 130.374 117.689 130.438 117.781C130.997 118.587 132.273 120.699 133.5 119.875C134.87 118.955 134.527 116.6 134.5 115.25C134.446 112.568 134.536 109.84 134.594 107.156C134.693 102.499 135.196 97.8357 136.594 93.375C136.943 92.2609 137.389 91.2473 138.062 90.2812C138.416 89.7733 138.975 89.5131 139.062 88.8438C139.204 87.7618 138.968 86.6301 138.844 85.5625C138.695 84.2846 138.643 82.9732 138.625 81.6875C138.594 79.4979 138.748 77.3138 138.688 75.125C138.676 74.7002 138.123 73.8139 138.406 73.4688C138.523 73.327 138.688 73.5164 138.875 73.625C138.937 73.7813 139.009 73.937 139.062 74.0938C139.228 74.5774 139.255 75.0676 139.375 75.5625C139.56 76.3268 139.864 77.1142 140.156 77.8438C140.64 79.0517 141.275 80.1725 142 81.25C142.353 81.7747 142.732 82.2938 143.094 82.8125C143.111 82.837 143.135 82.8387 143.156 82.875C142.942 82.5675 142.745 82.2448 142.531 81.9375C142.514 81.913 142.485 81.9008 142.469 81.875C142.446 81.8424 142.443 81.83 142.406 81.7812C142.387 81.7482 142.363 81.7204 142.344 81.6875C142.223 81.4786 142.116 81.2742 142 81.0625C141.881 80.8456 141.764 80.6287 141.656 80.4062C141.176 79.4173 140.779 78.3223 140.531 77.25C140.285 76.1827 140.09 74.9667 139.469 74.0312C139.435 73.9806 139.409 73.9256 139.375 73.875C139.382 73.8861 139.347 73.8471 139.344 73.8438C139.03 73.3735 138.726 72.903 138.406 72.4375C138.377 72.3951 138.342 72.3549 138.312 72.3125C138.27 72.2505 138.23 72.1869 138.188 72.125C138.131 72.0443 137.459 71.4115 137.219 71.6875ZM143.25 83C143.346 83.1731 143.444 83.3536 143.531 83.5312C143.745 83.9696 144.02 84.6464 144.219 85.0938C144.569 85.8822 145.088 86.5586 145.5 87.2812C145.07 86.3394 144.751 85.3289 144.219 84.4375C143.988 84.0519 143.721 83.6842 143.469 83.3125C143.463 83.4423 143.349 83.1814 143.25 83ZM145.688 87.625C145.867 88.0069 146.036 88.3731 146.25 88.75C146.184 88.66 146.055 88.5298 146.094 88.5938C146.277 88.8952 146.451 89.2068 146.688 89.4688C146.822 89.6182 146.556 89.2126 146.375 88.9375C146.455 89.0399 146.513 89.1487 146.594 89.25C146.246 88.7311 145.998 88.1512 145.688 87.625Z" fill="#bfa4b9" stroke="none"/>
</g>
<path d="M14.4972 335.534C15.6656 297.434 42.8874 241.76 52.1806 279.335C61.7903 318.19 63.2679 320.071 63.2679 320.071C63.2679 320.071 80.8694 383.697 88.8099 331.456C101.327 249.103 120.894 206.776 124.93 244.924C128.967 283.072 129.991 312.869 160.146 263.372C190.302 213.876 185.695 201.027 184.611 273.359C183.527 345.692 184.451 329.459 184.451 329.459" fill="none" opacity="0" stroke="#bfa4b9" stroke-linecap="butt" stroke-linejoin="round" stroke-width="5"/>
<path d="M15.242 337.144C16.4104 299.045 43.6322 243.37 52.9254 280.945C62.5351 319.8 64.0127 321.682 64.0127 321.682C64.0127 321.682 81.6142 385.308 89.5548 333.067C102.072 250.713 121.639 208.386 125.675 246.534C129.711 284.682 130.736 314.48 160.891 264.983C191.047 215.486 186.439 202.638 185.356 274.97C184.272 347.302 185.195 331.069 185.195 331.069" fill="none" opacity="0" stroke="#9c0a41" stroke-linecap="butt" stroke-linejoin="round" stroke-width="5"/>
<path d="M9.49305 171.474C10.2707 158.041 28.3882 138.414 34.5734 151.661C40.9691 165.359 41.9526 166.022 41.9526 166.022C41.9526 166.022 53.6673 188.453 58.9522 170.036C67.2833 141.002 80.3059 126.08 82.9923 139.529C85.6787 152.978 86.3604 163.483 106.43 146.033C126.501 128.583 123.434 124.053 122.713 149.554C121.991 175.055 122.606 169.332 122.606 169.332" fill="none" opacity="0" stroke="#9c0a41" stroke-linecap="butt" stroke-linejoin="round" stroke-width="5"/>
<path d="M132.615 56.1523C133.11 41.8127 144.637 20.8587 148.573 35.0008C152.642 49.6245 153.268 50.3326 153.268 50.3326C153.268 50.3326 160.722 74.2794 164.084 54.6175C169.385 23.6224 177.671 7.69194 179.381 22.0496C181.09 36.4072 181.524 47.6221 194.294 28.9931C207.064 10.364 205.113 5.52831 204.654 32.7518C204.195 59.9753 204.586 53.8657 204.586 53.8657" fill="none" opacity="0" stroke="#9c0a41" stroke-linecap="butt" stroke-linejoin="round" stroke-width="5.7956"/>
<path d="M25.6297 444.603L38.5934 452.855L55.2611 412.16L75.1036 465.235L100.634 391.528L112.011 428.097L142.303 386.833L141.907 453.282L153.68 444.033" fill="none" opacity="0" stroke="#ce5884" stroke-linecap="butt" stroke-linejoin="round" stroke-width="8.64071"/>
<path d="M128.121 410.119L180.439 445.306L241.516 181.84L354.259 462.196L427.54 107.129L520.634 297.063L675.295 49.3443L661.399 386.125L725.707 350.204" fill="none" opacity="1" stroke="#5b0726" stroke-linecap="butt" stroke-linejoin="round" stroke-width="47.8914"/>
<path d="M132.692 412.661L185.01 447.849L246.087 184.382L358.83 464.738L432.111 109.672L525.205 299.605L679.866 51.8866L665.971 388.668L730.278 352.746" fill="none" opacity="1" stroke="#ce5884" stroke-linecap="butt" stroke-linejoin="round" stroke-width="47.8914"/>
</g>
<g id="Layer-2" vectornatorLayerName="Layer 2" visibility="hidden"/>
</svg>
